PathFileType	4	(X/Y/Z)	Walk2.trc
DataRate	CameraRate	NumFrames	NumMarkers	Units	OrigDataRate	OrigDataStartFrame	OrigNumFrames
200.000000	200.000000	6	59	mm	200.000000	147	389
Frame#	Times		LFHD		RFHD		LBHD		RBHD		C7		T10		CLAV		STRN		RBack		LASI		RASI		LPSI		RPSI		RACR1		RUA1		RElbow		RFA1		RWRR		RWRU		RCAR		LACR1		LUA1		LElbow		LElbowM		LFA1		LWRR		LWRU		LCAR		RTH1		RTH3		RTH2		RTH4		RLFC		RTB1		RTB3		RTB2		RTB4		RLMAL		RMMAL		RCAL		RMT1		RMT5		RToe		LTH1		LTH3		LTH2		LTH4		LLFC		LTB1		LTB3		LTB2		LTB4		LLMAL		LMMAL		LCAL		LMT1		LMT5		LToe		RElbowM
			X1	Y1	Z1	X2	Y2	Z2	X3	Y3	Z3	X4	Y4	Z4	X5	Y5	Z5	X6	Y6	Z6	X7	Y7	Z7	X8	Y8	Z8	X9	Y9	Z9	X10	Y10	Z10	X11	Y11	Z11	X12	Y12	Z12	X13	Y13	Z13	X14	Y14	Z14	X15	Y15	Z15	X16	Y16	Z16	X17	Y17	Z17	X18	Y18	Z18	X19	Y19	Z19	X20	Y20	Z20	X21	Y21	Z21	X22	Y22	Z22	X23	Y23	Z23	X24	Y24	Z24	X25	Y25	Z25	X26	Y26	Z26	X27	Y27	Z27	X28	Y28	Z28	X29	Y29	Z29	X30	Y30	Z30	X31	Y31	Z31	X32	Y32	Z32	X33	Y33	Z33	X34	Y34	Z34	X35	Y35	Z35	X36	Y36	Z36	X37	Y37	Z37	X38	Y38	Z38	X39	Y39	Z39	X40	Y40	Z40	X41	Y41	Z41	X42	Y42	Z42	X43	Y43	Z43	X44	Y44	Z44	X45	Y45	Z45	X46	Y46	Z46	X47	Y47	Z47	X48	Y48	Z48	X49	Y49	Z49	X50	Y50	Z50	X51	Y51	Z51	X52	Y52	Z52	X53	Y53	Z53	X54	Y54	Z54	X55	Y55	Z55	X56	Y56	Z56	X57	Y57	Z57	X58	Y58	Z58	X59	Y59	Z59

147	0.735	-193.77	1598.3	-93.421	-190.27	1605.4	1.2682	-336.99	1526.1	-113.41	-337.6	1542.9	26.821	-363.85	1417.5	-33.226	-439.81	1151.7	-43.339	-226.78	1336.7	-34.007	-171.81	1230	-24.192	-424.73	1322.9	66.692	-181.7	956.83	-168.62	-195.41	973.14	126.21	-434.19	965.56	-72.217	-435.77	966.14	18.026	-299.29	1372.7	120.12	-339.12	1191	211.41	-402.45	1075.4	230.76	-415.71	930.4	247.82	-352.61	821.5	215.54	-408.03	821.83	258.67	-352.67	767.63	265.65	-283.92	1371.9	-191.36	-265.38	1193.7	-285.72	-274.69	1065.6	-316.32	-309	1030.2	-248.8	-220.45	936.91	-323.64	-114.09	866.38	-267.59	-155.81	837.05	-318.58	-82.781	828.85	-308.82	-237.18	746.3	205.62	-165.29	593.66	166.07	-149.03	696.05	182.63	-202.11	668.34	184.55	-134.98	517.43	146.81	-76.824	361.32	95.948	-105.46	192.21	95.909	-125.53	282.24	144.65	-90.724	275.47	92.616	-158.12	81.063	114.22	-126.08	88.319	37.182	-211.89	43.667	64.555	-34.911	54.803	83.892	-77.642	41.057	144.29	12.338	66.881	125.85	-292.5	751.44	-242.06	-324.03	596.61	-176.07	-252.58	673.61	-188.56	-308.78	676.46	-204.19	-343.54	476.16	-141.11	-319.48	330.98	-58.551	-360.28	163.3	-56.944	-360.83	249.36	-114.23	-340.61	246.91	-56.302	-417.23	61.053	-78.942	-404	64.339	5.1368	-482.31	35.109	-45.071	-333.22	23.375	-92.2	-303.79	29.197	-11.437	-234.12	24.022	-38.16	-405.06	1046.6	136.04
148	0.74	-188.07	1597.6	-92.91	-184.54	1604.6	1.7885	-331.4	1525.5	-112.96	-331.94	1542.2	27.29	-358.38	1416.8	-32.976	-434.36	1151.1	-43.05	-221.28	1336	-33.81	-166.27	1229.2	-24.181	-419.28	1322.1	66.841	-176.73	955.96	-168.61	-189.71	972.59	126.59	-428.96	964.83	-71.433	-430.15	965.42	18.8	-293.78	1372	120.39	-334.36	1190.3	211.6	-397.99	1074.9	230.62	-411.72	929.89	247.67	-348.45	820.81	216.03	-404.44	821.27	258.52	-349.25	766.96	266.12	-278.28	1371.3	-191.02	-258.74	1193.3	-285.35	-267.3	1065.1	-315.98	-301.25	1029.5	-248.42	-211.53	936.97	-322.87	-104.05	868.21	-266.78	-145.6	837.95	-317.26	-72.397	830.84	-307.9	-230.91	745.73	205.99	-160.03	592.89	165.6	-143.17	695.14	182.32	-196.34	667.69	184.49	-129.96	516.52	146.31	-67.729	362.17	95.565	-90.257	192.1	96.289	-113.41	281.56	144.69	-78.509	275.84	92.619	-138.99	79.213	114.92	-107.16	87.344	37.88	-191.49	40.053	65.324	-14.906	56.744	84.76	-57.189	41.653	145.09	31.884	70.416	126.58	-288.48	750.93	-241.96	-320.88	596.34	-175.83	-249	672.78	-188.32	-305.18	676.12	-204.06	-341.19	475.98	-140.9	-317.87	330.62	-58.509	-359.6	163.16	-56.869	-359.8	249.26	-114.11	-339.46	246.67	-56.249	-417.11	61.222	-78.767	-403.82	64.442	5.2939	-482.24	35.497	-44.882	-333.23	23.37	-92.173	-303.73	29.193	-11.433	-233.98	23.937	-38.319	-399.92	1046	135.95
149	0.745	-182.38	1596.8	-92.387	-178.81	1603.7	2.3199	-325.8	1525	-112.51	-326.28	1541.4	27.765	-352.93	1416	-32.72	-428.9	1150.4	-42.737	-215.78	1335.2	-33.61	-160.72	1228.5	-24.172	-413.81	1321.4	67.011	-171.7	955.05	-168.56	-183.97	972.01	127	-423.71	964.05	-70.654	-424.51	964.66	19.562	-288.26	1371.2	120.67	-329.58	1189.6	211.81	-393.48	1074.3	230.5	-407.66	929.36	247.54	-344.2	820.1	216.55	-400.74	820.69	258.4	-345.72	766.28	266.59	-272.66	1370.6	-190.69	-252.1	1192.9	-284.95	-259.92	1064.6	-315.61	-293.53	1028.7	-248.02	-202.67	937.01	-322.08	-94.134	870	-265.94	-135.5	838.82	-315.91	-62.14	832.78	-306.95	-224.65	745.09	206.32	-154.94	591.97	165.19	-137.39	694.07	181.95	-190.66	666.92	184.45	-125.09	515.46	145.86	-58.829	363.03	95.17	-75.298	192.22	96.632	-101.46	281.03	144.71	-66.506	276.33	92.598	-120.07	77.726	115.58	-88.526	86.725	38.521	-171.3	36.87	66.07	4.7518	58.991	85.466	-36.992	42.546	145.76	51.088	74.175	127.13	-284.35	750.39	-241.85	-317.61	596.06	-175.58	-245.32	671.92	-188.06	-301.48	675.75	-203.91	-338.75	475.79	-140.68	-316.21	330.25	-58.464	-358.9	163.03	-56.788	-358.74	249.15	-113.98	-338.26	246.43	-56.193	-416.98	61.407	-78.582	-403.6	64.554	5.4619	-482.17	35.909	-44.675	-333.25	23.364	-92.137	-303.66	29.189	-11.432	-233.83	23.848	-38.486	-394.75	1045.4	135.87
150	0.75	-176.67	1596	-91.854	-173.06	1602.7	2.8616	-320.2	1524.4	-112.06	-320.63	1540.6	28.247	-347.49	1415.2	-32.454	-423.43	1149.6	-42.401	-210.29	1334.5	-33.407	-155.16	1227.7	-24.16	-408.34	1320.6	67.204	-166.61	954.11	-168.46	-178.18	971.4	127.42	-418.42	963.25	-69.878	-418.84	963.86	20.315	-282.74	1370.4	120.96	-324.76	1188.9	212.04	-388.91	1073.6	230.4	-403.51	928.79	247.44	-339.85	819.38	217.1	-396.95	820.08	258.31	-342.1	765.57	267.08	-267.06	1370	-190.34	-245.46	1192.4	-284.52	-252.55	1064.1	-315.21	-285.85	1027.9	-247.59	-193.87	937.03	-321.26	-84.338	871.73	-265.08	-125.52	839.66	-314.56	-52.013	834.66	-305.97	-218.41	744.37	206.62	-149.99	590.89	164.85	-131.7	692.85	181.53	-185.07	666.05	184.44	-120.33	514.28	145.48	-50.117	363.91	94.76	-60.612	192.55	96.934	-89.701	280.64	144.73	-54.731	276.95	92.549	-101.41	76.595	116.19	-70.225	86.453	39.099	-151.39	34.114	66.789	24.012	61.518	86.001	-17.105	43.713	146.27	69.91	78.126	127.47	-280.12	749.83	-241.72	-314.25	595.75	-175.32	-241.55	671.05	-187.77	-297.67	675.36	-203.75	-336.21	475.59	-140.44	-314.51	329.87	-58.413	-358.17	162.9	-56.699	-357.63	249.05	-113.84	-337.03	246.18	-56.131	-416.86	61.611	-78.385	-403.36	64.678	5.6412	-482.09	36.345	-44.449	-333.27	23.357	-92.091	-303.6	29.186	-11.43	-233.68	23.754	-38.661	-389.56	1044.7	135.83
151	0.755	-170.96	1595.2	-91.311	-167.32	1601.7	3.4124	-314.61	1523.8	-111.59	-314.98	1539.8	28.736	-342.07	1414.4	-32.178	-417.95	1148.8	-42.039	-204.81	1333.6	-33.198	-149.59	1226.9	-24.141	-402.86	1319.7	67.42	-161.47	953.14	-168.31	-172.35	970.76	127.85	-413.11	962.4	-69.102	-413.15	963.02	21.064	-277.2	1369.6	121.25	-319.91	1188.2	212.28	-384.3	1072.9	230.32	-399.29	928.2	247.38	-335.41	818.65	217.67	-393.05	819.44	258.25	-338.37	764.85	267.57	-261.48	1369.3	-189.99	-238.81	1191.9	-284.05	-245.19	1063.5	-314.79	-278.2	1027.2	-247.15	-185.13	937.04	-320.42	-74.666	873.41	-264.18	-115.67	840.47	-313.19	-42.015	836.48	-304.95	-212.2	743.57	206.89	-145.19	589.68	164.59	-126.07	691.49	181.08	-179.56	665.06	184.46	-115.67	512.98	145.16	-41.588	364.8	94.334	-46.23	193.09	97.192	-78.138	280.4	144.72	-43.199	277.67	92.471	-83.07	75.808	116.74	-52.312	86.509	39.614	-131.82	31.777	67.477	42.824	64.291	86.361	2.4215	45.126	146.63	88.311	82.231	127.62	-275.79	749.24	-241.58	-310.79	595.43	-175.07	-237.68	670.17	-187.47	-293.77	674.92	-203.57	-333.59	475.38	-140.18	-312.75	329.48	-58.35	-357.41	162.77	-56.6	-356.5	248.95	-113.69	-335.77	245.93	-56.057	-416.73	61.834	-78.176	-403.09	64.815	5.8317	-482.01	36.806	-44.205	-333.29	23.351	-92.034	-303.53	29.183	-11.427	-233.53	23.658	-38.84	-384.35	1044	135.81
152	0.76	-165.25	1594.3	-90.759	-161.57	1600.7	3.9716	-309.02	1523.2	-111.12	-309.34	1539	29.232	-336.66	1413.5	-31.889	-412.46	1148	-41.653	-199.33	1332.8	-32.981	-144.02	1226.1	-24.109	-397.37	1318.9	67.659	-156.27	952.17	-168.13	-166.48	970.09	128.27	-407.77	961.53	-68.323	-407.44	962.14	21.814	-271.66	1368.8	121.56	-315.02	1187.5	212.55	-379.63	1072.2	230.26	-394.99	927.58	247.35	-330.89	817.9	218.26	-389.05	818.78	258.23	-334.53	764.1	268.07	-255.92	1368.6	-189.63	-232.18	1191.4	-283.57	-237.84	1063	-314.35	-270.59	1026.4	-246.69	-176.45	937.02	-319.57	-65.12	875.02	-263.25	-105.93	841.25	-311.82	-32.148	838.24	-303.89	-206.02	742.71	207.12	-140.5	588.33	164.42	-120.53	690	180.59	-174.13	663.98	184.54	-111.07	511.59	144.91	-33.237	365.7	93.888	-32.181	193.82	97.403	-66.786	280.29	144.7	-31.924	278.49	92.36	-65.109	75.347	117.23	-34.84	86.87	40.064	-112.67	29.844	68.128	61.138	67.27	86.546	21.53	46.754	146.84	106.25	86.444	127.58	-271.34	748.63	-241.41	-307.24	595.08	-174.8	-233.72	669.29	-187.15	-289.77	674.46	-203.37	-330.89	475.16	-139.91	-310.95	329.09	-58.268	-356.63	162.66	-56.487	-355.32	248.85	-113.52	-334.47	245.68	-55.97	-416.6	62.079	-77.957	-402.82	64.968	6.0333	-481.93	37.296	-43.942	-333.32	23.346	-91.965	-303.46	29.18	-11.42	-233.36	23.557	-39.024	-379.12	1043.2	135.82
